<svg xmlns="http://www.w3.org/2000/svg" width="569" height="547" viewBox="226.9 248.6 568.6 546.8" role="img" aria-label="Board game catalog logo">
  <path fill="#eef2f6" transform="translate(568,269)" d="M0 0 C3.625 1.25 3.625 1.25 7 3 C8.992 3.691 10.993 4.356 13 5 C17.453 6.455 21.693 8.154 26 10 C27.892 10.637 29.788 11.261 31.688 11.875 C35.822 13.224 39.817 14.72 43.812 16.438 C49.647 18.929 55.585 20.919 61.609 22.887 C66.587 24.521 71.435 26.362 76.285 28.34 C82.697 30.95 89.098 33.431 95.688 35.562 C101.298 37.386 106.688 39.488 112.105 41.816 C115.039 43.016 117.985 44.026 121 45 C125.034 46.303 128.918 47.764 132.812 49.438 C137.309 51.359 141.85 52.997 146.5 54.5 C152.071 56.305 157.457 58.376 162.84 60.68 C166.531 62.222 170.255 63.656 174 65.062 C174.68 65.319 175.36 65.575 176.06 65.84 C180.17 67.372 184.302 68.723 188.5 70 C196.098 72.516 202.156 76.591 206.156 83.672 C209.078 91.735 206.885 100.259 204 108 C203.542 109.235 203.085 110.47 202.613 111.742 C201.247 115.375 199.828 118.986 198.4 122.595 C195.91 128.902 193.561 135.142 191.73 141.676 C190.878 144.388 189.806 146.949 188.688 149.562 C186.428 154.856 184.471 160.221 182.587 165.655 C179.72 173.886 176.661 182.046 173.603 190.207 C171.224 196.585 168.961 202.984 166.844 209.454 C165.665 213.011 164.352 216.506 163 220 C161.33 224.332 159.663 228.665 158 233 C157.882 233.307 157.882 233.307 157.284 234.861 C154.024 243.357 151.01 251.9 148.187 260.552 C146.408 265.938 144.335 271.136 142.082 276.344 C140.733 279.656 139.778 283.019 138.805 286.457 C137.909 289.288 136.798 291.96 135.625 294.688 C133.679 299.226 132.016 303.804 130.5 308.5 C129.057 312.965 127.501 317.321 125.625 321.625 C123.245 327.149 121.365 332.787 119.5 338.5 C117.314 345.193 114.988 351.72 112.184 358.184 C109.038 365.669 106.509 373.408 104 381.125 C103.34 383.086 102.674 385.044 102 387 C101.822 387.523 101.822 387.523 100.922 390.168 C97.874 398.348 94.064 403.013 86.562 407.438 C84.037 407.992 81.917 408.056 79.34 408.035 C78.528 408.03 77.715 408.025 76.879 408.02 C76.259 408.013 75.639 408.007 75 408 C74.994 406.742 74.988 405.484 74.982 404.188 C74.925 392.315 74.852 380.442 74.764 368.569 C74.72 362.465 74.68 356.362 74.654 350.258 C74.627 344.364 74.587 338.47 74.537 332.576 C74.52 330.332 74.509 328.087 74.502 325.842 C74.493 322.689 74.465 319.537 74.432 316.385 C74.434 315.464 74.435 314.542 74.437 313.593 C74.277 302.469 70.381 294.294 63 286 C60.176 283.574 57.336 281.647 54 280 C52.968 279.489 51.936 278.978 50.872 278.451 C44.089 275.959 36.706 276.56 29.578 276.568 C27.912 276.559 26.246 276.548 24.58 276.537 C20.074 276.509 15.569 276.5 11.063 276.494 C6.348 276.484 1.632 276.458 -3.083 276.434 C-12.004 276.39 -20.925 276.362 -29.846 276.339 C-40.005 276.311 -50.165 276.268 -60.325 276.222 C-81.216 276.129 -102.108 276.058 -123 276 C-122.435 272.47 -121.855 269.2 -120.582 265.855 C-120.301 265.106 -120.019 264.357 -119.729 263.585 C-119.427 262.794 -119.124 262.003 -118.812 261.188 C-118.167 259.469 -117.522 257.75 -116.879 256.031 C-116.718 255.604 -116.718 255.604 -115.907 253.441 C-114.643 250.039 -113.443 246.615 -112.25 243.188 C-109.595 235.611 -106.864 228.062 -104.112 220.52 C-103.627 219.19 -103.143 217.859 -102.66 216.528 C-100.257 209.906 -97.797 203.372 -94.862 196.967 C-93.497 193.853 -92.478 190.676 -91.438 187.438 C-90.019 183.043 -88.54 178.694 -86.901 174.376 C-85.812 171.503 -84.742 168.623 -83.672 165.742 C-83.213 164.507 -82.754 163.271 -82.281 161.998 C-82.033 161.331 -81.786 160.665 -81.531 159.978 C-80.725 157.807 -79.918 155.636 -79.112 153.465 C-75.638 144.114 -72.17 134.761 -68.706 125.406 C-66.898 120.523 -65.088 115.641 -63.279 110.759 C-61.728 106.571 -60.177 102.383 -58.628 98.195 C-57.642 95.532 -56.655 92.87 -55.668 90.207 C-54.987 88.369 -54.307 86.53 -53.628 84.692 C-51.784 79.721 -49.924 74.764 -47.936 69.85 C-45.835 64.648 -43.943 59.38 -42.066 54.094 C-41.328 52.03 -40.589 49.966 -39.85 47.902 C-38.704 44.698 -37.56 41.493 -36.421 38.286 C-35.308 35.157 -34.188 32.032 -33.066 28.906 C-32.733 27.961 -32.399 27.016 -32.056 26.042 C-25.787 8.641 -25.787 8.641 -19.812 3.938 C-19.138 3.39 -18.464 2.842 -17.77 2.277 C-12.623 -1.438 -6.093 -0.385 0 0 Z"/>
  <path fill="#047857" transform="translate(429.678,560.733)" d="M0 0 C0.766 -0.005 1.531 -0.009 2.32 -0.014 C4.882 -0.026 7.443 -0.025 10.005 -0.023 C11.843 -0.029 13.681 -0.036 15.52 -0.043 C20.512 -0.061 25.503 -0.066 30.495 -0.067 C33.616 -0.069 36.736 -0.073 39.856 -0.078 C50.747 -0.097 61.637 -0.105 72.527 -0.103 C82.671 -0.102 92.814 -0.123 102.957 -0.155 C111.672 -0.181 120.386 -0.192 129.1 -0.19 C134.303 -0.19 139.504 -0.195 144.707 -0.217 C149.602 -0.236 154.497 -0.236 159.392 -0.222 C161.185 -0.22 162.977 -0.224 164.77 -0.236 C184.412 -0.36 184.412 -0.36 191.179 6.017 C196.26 11.442 197.571 16.262 197.583 23.686 C197.587 24.424 197.59 25.162 197.594 25.922 C197.605 28.389 197.601 30.856 197.597 33.323 C197.601 35.094 197.606 36.865 197.612 38.636 C197.626 43.444 197.626 48.252 197.624 53.06 C197.623 57.076 197.627 61.092 197.632 65.107 C197.643 74.584 197.644 84.06 197.638 93.537 C197.632 103.306 197.644 113.076 197.665 122.846 C197.683 131.238 197.689 139.631 197.686 148.023 C197.684 153.033 197.686 158.044 197.7 163.054 C197.713 167.768 197.711 172.481 197.698 177.195 C197.696 178.922 197.698 180.649 197.707 182.376 C197.717 184.74 197.709 187.104 197.696 189.468 C197.704 190.145 197.711 190.823 197.719 191.521 C197.653 197.42 196.164 202.651 192.744 207.51 C192.192 208.048 191.641 208.587 191.072 209.142 C190.531 209.697 189.989 210.251 189.431 210.822 C184.311 214.331 178.373 214.56 172.352 214.528 C171.579 214.532 170.807 214.536 170.01 214.54 C167.436 214.55 164.863 214.546 162.289 214.542 C160.437 214.546 158.585 214.552 156.734 214.558 C151.715 214.571 146.697 214.572 141.678 214.569 C137.486 214.568 133.293 214.573 129.101 214.578 C119.21 214.589 109.32 214.589 99.429 214.583 C89.23 214.577 79.031 214.589 68.832 214.611 C60.069 214.628 51.306 214.634 42.543 214.631 C37.312 214.629 32.081 214.632 26.85 214.646 C21.932 214.658 17.014 214.656 12.096 214.643 C10.293 214.641 8.489 214.644 6.686 214.652 C4.221 214.662 1.757 214.654 -0.708 214.642 C-1.418 214.649 -2.129 214.656 -2.86 214.664 C-8.523 214.603 -13.271 213.372 -17.604 209.584 C-18.061 209.005 -18.519 208.426 -18.99 207.83 C-19.461 207.254 -19.931 206.678 -20.416 206.084 C-23.488 201.662 -23.967 198.139 -23.939 192.803 C-23.941 192.426 -23.941 192.426 -23.95 190.517 C-23.961 187.986 -23.957 185.456 -23.953 182.926 C-23.957 181.113 -23.962 179.299 -23.968 177.486 C-23.981 172.558 -23.982 167.63 -23.98 162.703 C-23.978 158.59 -23.983 154.477 -23.988 150.364 C-23.999 140.661 -24 130.958 -23.994 121.255 C-23.988 111.244 -24 101.233 -24.021 91.222 C-24.039 82.628 -24.045 74.034 -24.042 65.44 C-24.04 60.307 -24.042 55.174 -24.056 50.041 C-24.069 45.213 -24.067 40.385 -24.054 35.557 C-24.051 33.786 -24.054 32.015 -24.062 30.243 C-24.073 27.824 -24.065 25.405 -24.052 22.985 C-24.06 22.286 -24.067 21.586 -24.074 20.865 C-24.013 15.316 -22.554 11.324 -18.811 7.221 C-18.148 6.659 -17.486 6.096 -16.803 5.517 C-16.145 4.945 -15.488 4.373 -14.811 3.783 C-10.069 0.414 -5.688 -0.025 0 0 Z"/>
  <path fill="#eef2f6" transform="translate(378,306)" d="M0 0 C0.118 16.211 -0.245 32.377 -0.805 48.578 C-0.89 51.121 -0.975 53.663 -1.059 56.206 C-1.26 62.203 -1.463 68.199 -1.668 74.196 C-1.917 81.452 -2.159 88.709 -2.402 95.965 C-2.796 107.713 -3.196 119.461 -3.598 131.209 C-3.847 138.509 -4.095 145.81 -4.341 153.11 C-4.54 159.043 -4.741 164.977 -4.943 170.91 C-5.026 173.372 -5.109 175.834 -5.191 178.296 C-5.594 190.33 -6.017 202.36 -6.667 214.384 C-7.17 223.751 -7.346 233.128 -7.552 242.505 C-7.743 251.042 -7.999 259.559 -8.516 268.082 C-9 276.186 -9.218 284.272 -9.24 292.39 C-9.25 294.594 -9.281 296.798 -9.312 299.002 C-9.394 309.984 -7.996 319.169 -1 328 C2.208 331.247 5.355 334.313 9.598 336.086 C12 338 12 338 12.568 341.645 C12.567 343.153 12.539 344.661 12.488 346.168 C12.485 346.565 12.485 346.565 12.467 348.576 C12.439 351.114 12.376 353.65 12.312 356.188 C12.287 357.908 12.265 359.629 12.244 361.35 C12.189 365.567 12.103 369.783 12 374 C9.792 374.829 7.581 375.647 5.367 376.461 C4.136 376.918 2.905 377.375 1.636 377.845 C-4.139 379.679 -9.56 380.39 -15.281 378.078 C-24.071 373.027 -27.01 366.283 -30 357 C-30.686 354.916 -31.373 352.833 -32.062 350.75 C-32.363 349.817 -32.663 348.883 -32.973 347.922 C-34 345 -34 345 -35.418 341.762 C-36.954 338.201 -38.173 334.587 -39.34 330.887 C-39.548 330.232 -39.756 329.578 -39.971 328.904 C-40.849 326.142 -41.72 323.378 -42.591 320.615 C-44.83 313.522 -47.127 306.521 -49.975 299.644 C-52.536 293.039 -54.519 286.205 -56.646 279.45 C-58.856 272.444 -61.123 265.526 -63.932 258.732 C-66.455 252.277 -68.518 245.643 -70.688 239.062 C-71.217 237.464 -71.747 235.866 -72.277 234.269 C-73.344 231.051 -74.41 227.834 -75.474 224.616 C-77.664 217.992 -79.862 211.37 -82.062 204.75 C-82.42 203.67 -82.777 202.59 -83.145 201.477 C-83.48 200.469 -83.815 199.461 -84.16 198.422 C-84.445 197.562 -84.73 196.702 -85.024 195.815 C-85.801 193.575 -86.613 191.36 -87.453 189.144 C-88.933 185.22 -90.283 181.264 -91.594 177.281 C-91.827 176.579 -92.059 175.877 -92.299 175.153 C-93.281 172.191 -94.26 169.227 -95.239 166.263 C-95.96 164.081 -96.683 161.9 -97.406 159.719 C-97.622 159.063 -97.838 158.408 -98.06 157.733 C-99.384 153.74 -100.812 149.8 -102.303 145.867 C-103.243 143.348 -104.097 140.804 -104.938 138.25 C-105.106 137.74 -105.106 137.74 -105.961 135.156 C-106.654 133.052 -107.346 130.948 -108.039 128.844 C-109.664 123.932 -111.327 119.054 -113.173 114.222 C-115.635 107.606 -117.862 100.903 -120.148 94.225 C-120.368 93.581 -120.589 92.937 -120.816 92.273 C-121.257 90.984 -121.698 89.695 -122.139 88.406 C-123.393 84.743 -124.676 81.092 -125.988 77.449 C-132.139 60.198 -132.139 60.198 -129.109 52.836 C-123.197 42.311 -113.849 39.059 -103 35.438 C-101.665 34.979 -100.33 34.518 -98.996 34.057 C-93.645 32.213 -88.279 30.418 -82.902 28.653 C-82.237 28.433 -81.571 28.214 -80.885 27.988 C-79.058 27.387 -77.23 26.791 -75.402 26.196 C-71.845 24.946 -68.452 23.514 -65 22 C-54.662 17.901 -44.163 14.372 -33.6 10.903 C-27.405 8.851 -21.393 6.639 -15.41 4.031 C-10.255 1.826 -5.635 0 0 0 Z"/>
  <path fill="#eef2f6" transform="translate(419.047,277.793)" d="M0 0 C0.453 0.005 0.453 0.005 2.748 0.027 C15.55 0.194 28.346 0.686 41.141 1.145 C43.803 1.237 46.465 1.33 49.128 1.421 C53.079 1.558 57.031 1.694 60.982 1.831 C71.555 2.198 82.128 2.53 92.703 2.832 C93.412 2.852 94.121 2.873 94.851 2.894 C98.552 3 102.252 3.105 105.953 3.207 C105.169 6.677 104.016 9.956 102.809 13.301 C102.379 14.497 101.949 15.693 101.506 16.926 C101.051 18.186 100.596 19.447 100.141 20.707 C97.62 27.696 95.107 34.68 92.785 41.738 C91.496 45.643 90.112 49.441 88.453 53.207 C86.365 58.096 84.657 63.028 83.024 68.084 C82.075 70.852 81.015 73.491 79.848 76.172 C76.191 84.864 73.027 93.739 69.798 102.596 C67.806 108.06 65.805 113.52 63.805 118.98 C63.398 120.09 62.992 121.2 62.574 122.343 C58.593 133.208 54.56 144.053 50.516 154.895 C45.465 168.437 40.447 181.991 35.486 195.567 C33.195 201.834 30.88 208.091 28.516 214.332 C26.5 219.666 24.637 225.027 22.91 230.461 C21.752 233.785 20.346 236.974 18.953 240.207 C18.203 242.116 17.478 244.032 16.762 245.954 C16.251 247.326 15.729 248.695 15.199 250.059 C13.973 253.248 12.948 256.232 12.238 259.586 C11.528 262.742 11.023 264.705 8.953 267.207 C5.639 268.253 2.595 268.802 -0.837 269.221 C-10.422 270.429 -16.634 275.967 -22.645 283.293 C-26.857 289.042 -28.131 294.452 -28.252 301.456 C-28.272 302.477 -28.292 303.498 -28.313 304.549 C-28.329 305.639 -28.346 306.729 -28.363 307.852 C-28.384 308.976 -28.405 310.101 -28.426 311.26 C-28.492 314.847 -28.551 318.433 -28.609 322.02 C-28.653 324.454 -28.696 326.888 -28.74 329.322 C-28.847 335.284 -28.949 341.245 -29.047 347.207 C-29.707 347.207 -30.367 347.207 -31.047 347.207 C-35.865 339.751 -35.585 332.801 -35.422 324.145 C-35.407 322.61 -35.394 321.075 -35.381 319.541 C-35.212 304.782 -34.515 290.037 -33.83 275.295 C-33.212 261.912 -32.797 248.539 -32.547 235.145 C-32.183 215.926 -31.517 196.726 -30.777 177.518 C-30.69 175.249 -30.603 172.98 -30.516 170.711 C-30.473 169.615 -30.431 168.518 -30.388 167.389 C-30.053 158.58 -29.784 149.77 -29.547 140.957 C-29.123 125.438 -28.508 109.929 -27.839 94.419 C-27.358 83.101 -26.97 71.789 -26.728 60.463 C-26.626 55.836 -26.504 51.209 -26.386 46.583 C-26.327 44.019 -26.278 41.456 -26.24 38.892 C-26.186 35.298 -26.096 31.706 -26 28.113 C-25.994 27.055 -25.987 25.997 -25.981 24.906 C-25.702 16.513 -23.068 10.112 -16.982 4.202 C-11.72 -0.065 -6.448 -0.126 0 0 Z"/>
  <path fill="#ffffff" transform="translate(582.184,597.598)" d="M0 0 C5.898 4.554 10.2 9.879 11.223 17.383 C11.462 25.579 10.199 31.089 4.816 37.402 C-1.346 43.021 -6.808 44.944 -15.012 44.773 C-21.015 44.071 -25.877 41.819 -30.066 37.43 C-31.582 35.472 -32.928 33.535 -34.184 31.402 C-34.559 30.781 -34.934 30.16 -35.32 29.52 C-37.566 24.013 -36.701 17.228 -35.121 11.652 C-31.485 5.553 -27.557 -0.094 -20.484 -2.195 C-13.415 -3.432 -6.343 -3.721 0 0 Z"/>
  <path fill="#ffffff" transform="translate(584.688,700.688)" d="M0 0 C4.19 4.19 7.88 9.26 8.312 15.312 C8.374 16.054 8.436 16.795 8.5 17.559 C8.8 23.72 7.991 28.282 4.312 33.312 C-0.236 38.277 -5.488 41.865 -12.328 42.594 C-20.638 42.866 -26.929 40.815 -33.109 35.164 C-37.92 29.52 -39.511 22.336 -39.191 15.051 C-37.88 7.922 -33.931 2.824 -28.062 -1.25 C-18.885 -6.933 -8.875 -5.572 0 0 Z"/>
  <path fill="#ffffff" transform="translate(470.77,696.859)" d="M0 0 C7.293 3.193 11.28 7.973 14.605 15.078 C16.251 23.14 15.386 29.934 11.23 37.141 C6.586 42.738 0.72 45.473 -6.371 46.527 C-13.921 47.006 -18.872 44.751 -24.77 40.141 C-29.944 35.099 -31.901 28.86 -32.332 21.766 C-32.102 15.385 -29.953 10.915 -25.77 6.141 C-17.987 -0.852 -10.096 -3.133 0 0 Z"/>
  <path fill="#ffffff" transform="translate(477,599)" d="M0 0 C5.674 4.835 8.382 9.67 9.246 17.121 C9.662 24.396 7.023 29.749 3.25 35.812 C-1.391 40.325 -7.767 43.114 -14.25 43.25 C-21.809 43.116 -26.839 39.815 -32.27 34.836 C-37.258 29.544 -38.325 23.292 -38.211 16.301 C-37.595 9.579 -33.674 4.556 -29 0 C-20.268 -6.237 -8.994 -5.378 0 0 Z"/>
</svg>
